<svg id="Layer_1" data-name="Layer 1" xmlns="http://www.w3.org/2000/svg" viewBox="0 0 63.5 63.5"><defs><style>.cls-1{fill:none;stroke:#000;stroke-miterlimit:10;stroke-width:2.5px;}</style></defs><path d="M35.4,39.69c-.22,5.57-.49,9.83-.76,12.8a15.84,15.84,0,0,1-.48,1.95c-.22.27-1.25-.22-3-1.46-4.64-1.35-7.51-2.92-8.42-4.86-.87-.87-.81-1.08.16-.76,3.89,2,6.48,2.49,7.67,1.62.64-.81,1-3.72,1.08-8.8a2.35,2.35,0,0,0-1.95.22c-4.43,2.37-6.8,4-7.13,5A3.26,3.26,0,0,1,20,47.25a15.46,15.46,0,0,1-9.4.81c-.81-.21-.92-.48-.22-.81C12.82,46.12,15.69,45,19,43.8c3.73-1.19,7.78-4,12.32-8.43-.11-.54-.22-1-.27-1.45a27.66,27.66,0,0,0-3.51,1.89c-1.89,1.13-3.14,1.94-3.78,2.37A4.22,4.22,0,0,0,22.22,40a3.18,3.18,0,0,1-2.7,1.35,41.88,41.88,0,0,1-4.81.21c-1.24-.1-1.35-.37-.27-1C16,39.86,18,39,20.38,37.91a39,39,0,0,0,8.75-6.37,2,2,0,0,1,.6-.59A7.19,7.19,0,0,0,28,29.49c-1.51,1.19-3.19,2.37-5,3.51a33.91,33.91,0,0,1-4.37,2.37,2.43,2.43,0,0,1-1.52-.1c-.48-.17-.32-.49.49-.92a85.27,85.27,0,0,0,8-5.78,11,11,0,0,0,1-1.13,12.82,12.82,0,0,0-1.84.75c-1,.65-1.51.87-1.73.65a5.41,5.41,0,0,1-.75-1.08,10.78,10.78,0,0,0-1-1.35,8.7,8.7,0,0,1-3-5.18c-.32-.71-.27-1,.11-1a9.21,9.21,0,0,0,1.78-.38,83.17,83.17,0,0,1,8.16-1.73c.54-.1,1.08-.16,1.72-.27A17.1,17.1,0,0,1,32.21,16a3,3,0,0,0,1.3-2c-.54-1.13-1.73-1.56-3.57-1.24-3.08,1.24-4.75,2.43-5,3.73-.1.81-.86,1.4-2.16,1.62a21.94,21.94,0,0,0-3.18.81,6.61,6.61,0,0,1-2.86.21c-1.41-.1-1.14-.59.75-1.62,1.41-1,3-1.94,4.65-3s3.45-2.27,5.56-3.73,3.56-2.43,4.86-3.24c0-.21.65.17,1.67,1.14s1,1.62.38,1.73c-1.3.43-1.94.75-1.89.91-.11.22.33.33,1.3.33.81,0,2.05.75,3.67,2.32,1,.38,1.19.81.54,1.13a8.47,8.47,0,0,0-1.57,1.35,10.78,10.78,0,0,0-1.29.76c1-.11,2.05-.16,3.24-.22a8.87,8.87,0,0,1,5.83.92c1.51.92,2.05,1.35,1.67,1.41a77,77,0,0,0-5.23,6c-.54.92-1.08,1.35-1.62,1.14-.76-.11-1.57-.16-2.44-.22-2.1,0-3.94.06-5.29.16a7.6,7.6,0,0,0-1.35,1.08,7.14,7.14,0,0,0,2.38,2c1.19.7,2,2.32,2.43,4.7a.25.25,0,0,0,.27.22,59.87,59.87,0,0,0,6-5.46c.33-.65.65-.54,1.19.22A8,8,0,0,0,44,31.16c.44.54.44.87,0,1A7,7,0,0,0,42,33.21a15.61,15.61,0,0,1-3,2,2.62,2.62,0,0,0-1.4,1.14c.65.54,1.3,1,2,1.56,1.3,1.14,2.32,2.05,3.29,2.92a16.55,16.55,0,0,0,5.46,2.7c2.43,1,4.32,1.94,5.56,2.59s1.67,1.13,1.67,1.46-.48.54-1.18.54A38,38,0,0,1,43.88,48c-.49,0-.76-.76-.87-2.38a4.25,4.25,0,0,0-2.7-3.51,8.09,8.09,0,0,1-3.67-2.59c-.43-.38-.87-.76-1.3-1.19A11.82,11.82,0,0,0,35.4,39.69Zm-5.94-17.6c.21-.86.43-1.57.64-2.27a2.92,2.92,0,0,1-.81.22A38.86,38.86,0,0,0,23,21.66a1,1,0,0,0-.76.86,3.55,3.55,0,0,0,.38,2c.33.92.76,1.19,1.35,1,1.3-.44,2.81-.81,4.48-1.19A19,19,0,0,0,29.46,22.09Zm3.78-1a12.22,12.22,0,0,0-.65,2.05,1.77,1.77,0,0,0-.16.59c1.35-.21,2.75-.32,4.37-.43a3.48,3.48,0,0,0,2.49-2.1c.48-1.14.16-1.84-.87-2.11a33.94,33.94,0,0,0-4.64.16.72.72,0,0,1-.06.65A2.46,2.46,0,0,0,33.24,21.12Z" transform="translate(-0.25 -0.25)"/><circle class="cls-1" cx="31.75" cy="31.75" r="30.5"/></svg>